<?xml version="1.0" standalone="no"?>
<!DOCTYPE svg PUBLIC "-//W3C//DTD SVG 20010904//EN"
 "http://www.w3.org/TR/2001/REC-SVG-20010904/DTD/svg10.dtd">
<svg version="1.0" xmlns="http://www.w3.org/2000/svg"
 width="396.000000pt" height="394.000000pt" viewBox="0 0 396.000000 394.000000"
 preserveAspectRatio="xMidYMid meet">

<g transform="translate(0.000000,394.000000) scale(0.100000,-0.100000)"
fill="#000000" stroke="none">
<path d="M0 1970 l0 -1970 1980 0 1980 0 0 1970 0 1970 -1980 0 -1980 0 0
-1970z m3143 1283 c-20 -32 -151 -236 -291 -453 -140 -217 -353 -549 -475
-738 -121 -188 -222 -340 -224 -338 -4 4 -69 332 -119 598 l-18 98 -705 2
-706 3 75 27 c78 27 507 176 645 223 44 15 177 61 295 102 118 41 330 115 470
163 716 247 823 284 925 320 143 50 138 48 152 49 7 1 -4 -25 -24 -56z m-1262
-1425 l65 -343 704 -5 c596 -4 700 -7 675 -18 -16 -7 -277 -99 -580 -204 -302
-104 -829 -287 -1170 -405 -740 -257 -774 -268 -780 -261 -5 4 255 412 749
1175 61 95 144 225 184 288 41 63 77 115 81 115 3 0 36 -154 72 -342z"/>
</g>
</svg>
